<svg xmlns="http://www.w3.org/2000/svg" xml:space="preserve" style="fill-rule:evenodd;clip-rule:evenodd;stroke-linejoin:round;stroke-miterlimit:2" viewBox="0 0 250 250">
	<path d="M109.849 38.24a29.377 29.377 0 0 1 27.093 0 1511.975 1511.975 0 0 1 70.852 39.472c8.5 5.06 13.817 14.056 14.109 23.874.722 25.859.722 51.916 0 77.774-.293 9.818-5.609 18.814-14.109 23.874a1511.083 1511.083 0 0 1-70.852 39.473 29.38 29.38 0 0 1-27.093 0 1511.435 1511.435 0 0 1-70.851-39.472c-8.501-5.061-13.818-14.057-14.11-23.875a1395.61 1395.61 0 0 1 .001-77.774c.292-9.817 5.608-18.813 14.109-23.874a1511.435 1511.435 0 0 1 70.851-39.472Z" style="fill:#074d39" transform="matrix(1.16713 0 0 1.17851 -19.274 -40.58)"/>
	<path d="M564.35 71.44c-7.39-8.73-19.47-9.4-28.2-2.69l-.67.67c-8.06-5.37-18.8-5.37-27.52-.67l-37.59-44.31c-2.01-2.69-6.04-2.69-8.73-.67l-22.15 18.8 34.91 40.95c5.37 6.04 4.03 15.44-2.01 20.14-6.04 5.37-15.44 4.7-20.14-2.01L417.33 60.7l-19.47 16.78 34.91 40.95c5.37 6.04 4.03 15.44-2.01 20.14-6.04 5.37-15.44 4.7-20.14-2.01l-34.91-40.95-22.83 19.47c-2.69 2.01-2.69 6.04-.67 8.73l37.59 44.31c-5.37 5.37-8.73 12.75-8.06 20.14L212.58 330.58c-8.73-4.03-19.47-2.69-27.52 4.03-4.03 3.36-6.71 8.05-8.06 12.75-9.4-10.07-25.51-11.41-36.25-2.01-2.69 2.68-5.37 5.37-6.71 8.73-9.4-8.05-21.48-13.43-34.24-14.1-16.11-1.34-32.22 3.36-44.31 14.1-24.17 20.14-28.2 54.38-12.08 79.89-5.37 2.01-10.07 5.37-14.77 8.73-25.51 21.48-28.87 60.42-7.38 85.93 10.74 12.76 25.51 20.14 41.62 21.48 16.11 1.34 32.22-3.36 44.31-14.1 4.7-4.03 8.06-8.06 11.41-13.43 9.4 8.05 20.81 12.75 33.57 14.1 16.11 1.34 32.22-3.36 44.31-14.1 12.76-10.74 20.14-25.51 21.48-41.62.67-11.41-1.34-22.16-6.04-32.22 4.03-.67 7.38-2.69 10.74-5.37 10.74-8.73 12.08-24.84 4.03-35.58 4.7-.67 10.07-2.69 14.1-6.04 9.4-8.06 12.08-20.81 6.71-31.55l165.8-139.65c2.68 1.34 6.04 2.69 9.4 2.69 6.71.67 13.43-1.34 19.47-6.04 8.06-6.71 11.41-18.13 8.06-27.53l76.53-64.45c2.69 1.34 6.04 2.69 9.4 2.69 6.71.67 13.43-1.34 19.47-6.04 9.4-8.06 12.08-22.15 6.04-32.9 8.73-6.72 9.4-19.47 2.68-27.53ZM87.04 511.16c-12.08 10.07-31.55 8.73-41.62-3.36-10.74-12.76-8.73-30.88 3.36-41.62 6.04-5.37 13.43-7.39 21.48-6.71 8.06.67 14.77 4.7 20.14 10.74 5.37 6.04 7.39 13.43 6.71 21.48-.68 7.39-4.03 14.1-10.07 19.47Zm26.18-88.61c-12.08 10.07-31.55 8.73-41.62-3.36-10.74-12.76-8.73-30.88 3.36-41.62 6.04-5.37 13.43-7.38 21.48-6.71 8.06.67 14.77 4.7 20.14 10.74 5.37 6.04 7.38 13.43 6.71 21.48-.67 7.38-4.03 14.1-10.07 19.47Zm63.1 75.19c-12.08 10.07-31.55 8.73-41.62-3.36-5.37-6.04-7.38-13.43-6.71-21.48.67-8.06 4.7-14.77 10.74-20.14 6.04-5.37 13.43-7.38 21.48-6.71 8.06.67 14.77 4.7 20.14 10.74 5.37 6.04 7.38 13.43 6.71 21.48-.67 7.38-4.7 14.77-10.74 19.47Z" style="fill:#fff;fill-rule:nonzero" transform="translate(47.777 48.22) scale(.26815)"/>
</svg>
