<?xml version="1.0" encoding="utf-8"?>
<!DOCTYPE svg PUBLIC "-//W3C//DTD SVG 1.0//EN" "http://www.w3.org/TR/2001/REC-SVG-20010904/DTD/svg10.dtd">
<svg version="1.0" xmlns="http://www.w3.org/2000/svg" xmlns:xlink="http://www.w3.org/1999/xlink" x="0px" y="0px"
	 width="576px" height="576px" viewBox="0 0 576 576" style="enable-background:new 0 0 576 576;" xml:space="preserve">
<g>
	<path d="M564.35,71.44c-7.39-8.73-19.47-9.4-28.2-2.69l-0.67,0.67c-8.06-5.37-18.8-5.37-27.52-0.67l-37.59-44.31
		c-2.01-2.69-6.04-2.69-8.73-0.67l-22.15,18.8l34.91,40.95l0,0l0,0c5.37,6.04,4.03,15.44-2.01,20.14
		c-6.04,5.37-15.44,4.7-20.14-2.01l0,0l0,0L417.33,60.7l-19.47,16.78l34.91,40.95l0,0l0,0c5.37,6.04,4.03,15.44-2.01,20.14
		c-6.04,5.37-15.44,4.7-20.14-2.01l0,0l0,0l-34.91-40.95l-22.83,19.47c-2.69,2.01-2.69,6.04-0.67,8.73l37.59,44.31
		c-5.37,5.37-8.73,12.75-8.06,20.14L212.58,330.58c-8.73-4.03-19.47-2.69-27.52,4.03c-4.03,3.36-6.71,8.05-8.06,12.75
		c-9.4-10.07-25.51-11.41-36.25-2.01c-2.69,2.68-5.37,5.37-6.71,8.73c-9.4-8.05-21.48-13.43-34.24-14.1
		c-16.11-1.34-32.22,3.36-44.31,14.1c-24.17,20.14-28.2,54.38-12.08,79.89c-5.37,2.01-10.07,5.37-14.77,8.73
		c-25.51,21.48-28.87,60.42-7.38,85.93c10.74,12.76,25.51,20.14,41.62,21.48c16.11,1.34,32.22-3.36,44.31-14.1
		c4.7-4.03,8.06-8.06,11.41-13.43c9.4,8.05,20.81,12.75,33.57,14.1c16.11,1.34,32.22-3.36,44.31-14.1
		c12.76-10.74,20.14-25.51,21.48-41.62c0.67-11.41-1.34-22.16-6.04-32.22c4.03-0.67,7.38-2.69,10.74-5.37
		c10.74-8.73,12.08-24.84,4.03-35.58c4.7-0.67,10.07-2.69,14.1-6.04c9.4-8.06,12.08-20.81,6.71-31.55L413.3,230.55
		c2.68,1.34,6.04,2.69,9.4,2.69c6.71,0.67,13.43-1.34,19.47-6.04c8.06-6.71,11.41-18.13,8.06-27.53l76.53-64.45
		c2.69,1.34,6.04,2.69,9.4,2.69c6.71,0.67,13.43-1.34,19.47-6.04c9.4-8.06,12.08-22.15,6.04-32.9
		C570.4,92.25,571.07,79.5,564.35,71.44z M87.04,511.16c-12.08,10.07-31.55,8.73-41.62-3.36c-10.74-12.76-8.73-30.88,3.36-41.62
		c6.04-5.37,13.43-7.39,21.48-6.71c8.06,0.67,14.77,4.7,20.14,10.74c5.37,6.04,7.39,13.43,6.71,21.48
		C96.43,499.08,93.08,505.79,87.04,511.16z M113.22,422.55c-12.08,10.07-31.55,8.73-41.62-3.36c-10.74-12.76-8.73-30.88,3.36-41.62
		c6.04-5.37,13.43-7.38,21.48-6.71c8.06,0.67,14.77,4.7,20.14,10.74c5.37,6.04,7.38,13.43,6.71,21.48
		C122.62,410.46,119.26,417.18,113.22,422.55z M176.32,497.74c-12.08,10.07-31.55,8.73-41.62-3.36c-5.37-6.04-7.38-13.43-6.71-21.48
		c0.67-8.06,4.7-14.77,10.74-20.14s13.43-7.38,21.48-6.71c8.06,0.67,14.77,4.7,20.14,10.74c5.37,6.04,7.38,13.43,6.71,21.48
		C186.39,485.65,182.36,493.04,176.32,497.74z"/>
</g>
</svg>
